<svg width="500" height="738" viewBox="0 0 500 738" fill="none" xmlns="http://www.w3.org/2000/svg">
<g clip-path="url(#clip0_49_35)">
<path d="M490.5 135.43V571.624C490.5 597.646 474.623 621.035 450.439 630.64L300.838 690.055C281.996 697.539 264.97 708.941 250.883 723.495L247.74 720.604C234.263 708.204 218.662 698.334 201.686 691.466L50.6835 630.37C26.6985 620.666 11 597.38 11 571.506V134.01C11 111.879 26.5119 92.7779 48.1719 88.2365C69.2168 83.8241 89.1737 75.2697 106.881 63.0711L162.653 24.6497C167.694 41.6044 187.231 50.3087 203.46 41.8197L249.347 17.8181L298.95 43.4849C316.604 52.6201 337.884 43.2914 343.534 24.7852L390.556 60.1997C409.221 74.2576 430.677 84.1619 453.484 89.2483C475.116 94.0728 490.5 113.266 490.5 135.43Z" fill="#232341" stroke="#131340" stroke-width="5"/>
<path d="M493.823 133.215V573.719C493.823 599.49 478.247 622.705 454.401 632.477L300.417 695.577C281.774 703.217 264.834 714.473 250.572 728.691L247.336 725.719C234.125 713.583 218.876 703.873 202.291 697.036L45.7993 632.527C22.018 622.723 6.5 599.542 6.5 573.819V133.215C6.5 111.784 20.8512 93.0066 41.531 87.3807L51.7725 84.5946C69.7386 79.707 86.7445 71.8047 102.065 61.2247L165.053 17.7283C166.855 34.9894 185.827 46.0207 202.138 37.5808L250 12.8149L300.718 39.0586C317.956 47.978 338.584 36.7138 340.685 17.7166L396.611 58.9483C412.973 71.0112 431.43 79.937 451.045 85.2732L458.792 87.3807C479.472 93.0066 493.823 111.784 493.823 133.215Z" stroke="#715AFF" stroke-width="5"/>
<line x1="250.926" y1="375.227" x2="250.926" y2="575.11" stroke="#715AFF" stroke-width="0.5"/>
<line x1="100.495" y1="374.977" x2="399.728" y2="374.977" stroke="#715AFF" stroke-width="0.5"/>
<path d="M250.455 734.736C237.057 720.311 220.73 708.9 202.557 701.275L41.4324 633.672C17.8463 623.777 2.5 600.695 2.5 575.117V131.23C2.5 110.468 15.9849 92.1113 35.7975 85.9033L52.3932 80.7033C68.1138 75.7775 83.0053 68.5182 96.5692 59.1683L169.787 8.69777C165.67 24.6973 182.534 42.3118 200.59 33.0778L250 7.80798L303.292 35.0632C322.453 44.8627 340.573 26.2665 336.229 9.1211L401.876 57.1726C416.431 67.8262 432.639 76.0135 449.852 81.4067L464.202 85.9033C484.015 92.1113 497.5 110.468 497.5 131.23V575.117C497.5 600.695 482.154 623.777 458.568 633.672L296.838 701.528C279.071 708.983 263.221 720.337 250.455 734.736Z" stroke="#131340" stroke-width="5"/>
</g>
<defs>
<clipPath id="clip0_49_35">
<rect width="500" height="738" fill="white"/>
</clipPath>
</defs>
</svg>
