<svg width="15" height="12" viewBox="0 0 15 12" fill="none" xmlns="http://www.w3.org/2000/svg">
<path d="M8.95665 11.6771C8.76404 11.4619 8.67158 11.2018 8.67929 10.8969C8.68699 10.5919 8.78747 10.3318 8.98073 10.1166L11.7014 7.07623H0.963084C0.690211 7.07623 0.461319 6.97291 0.276408 6.76628C0.0914962 6.55964 -0.000638721 6.30421 3.33245e-06 6C3.33245e-06 5.69507 0.0924592 5.43928 0.277371 5.23265C0.462282 5.02601 0.690853 4.92305 0.963084 4.92377H11.7014L8.95665 1.8565C8.76404 1.64125 8.66773 1.38547 8.66773 1.08915C8.66773 0.792825 8.76404 0.537399 8.95665 0.32287C9.14927 0.107623 9.37816 0 9.64333 0C9.9085 0 10.1371 0.107623 10.329 0.32287L14.7351 5.24664C14.8314 5.35426 14.8998 5.47085 14.9403 5.59641C14.9807 5.72197 15.0006 5.8565 15 6C15 6.1435 14.9798 6.27803 14.9393 6.40359C14.8989 6.52915 14.8308 6.64574 14.7351 6.75336L10.305 11.704C10.1284 11.9013 9.90786 12 9.64333 12C9.3788 12 9.14991 11.8924 8.95665 11.6771Z" fill="#FEFEFE"/>
</svg>
